ModelForces
version=1
nRows=16
nColumns=21
inDegrees=no

This file contains the forces exerted on a model during a simulation.

A force is a generalized force, meaning that it can be either a force (N) or a torque (Nm).

Units are S.I. units (second, meters, Newtons, ...)
Angles are in degrees.

endheader
time	muscle1	muscle2	contactForce.block.force.X	contactForce.block.force.Y	contactForce.block.force.Z	contactForce.block.torque.X	contactForce.block.torque.Y	contactForce.block.torque.Z	contactForce.ground.force.X	contactForce.ground.force.Y	contactForce.ground.force.Z	contactForce.ground.torque.X	contactForce.ground.torque.Y	contactForce.ground.torque.Z	ground_prescribedForce_fx	ground_prescribedForce_fy	ground_prescribedForce_fz	ground_prescribedForce_px	ground_prescribedForce_py	ground_prescribedForce_pz
      1.07699261	    312.38865067	    181.43285139	     29.01389817	    261.90345321	    -29.28611433	      7.98568141	     -1.30687794	     -4.65458975	    -29.01389817	   -261.90345321	     29.28611433	    -15.71189687	      1.34631502	     -2.64712731	   -158.42534388	      0.00000000	      0.00000000	      0.02692482	      0.00000000	      0.00000000
      1.08067748	    311.28168255	    177.92372280	     29.14913988	    258.92968709	    -29.38307023	      7.92260075	     -1.32942689	     -4.57472134	    -29.14913988	   -258.92968709	     29.38307023	    -15.52101991	      1.36981674	     -2.60728013	   -158.96738696	      0.00000000	      0.00000000	      0.02701694	      0.00000000	      0.00000000
      1.08436235	    310.07991123	    178.69444987	     29.43225442	    258.65830432	    -29.55766724	      7.84316654	     -1.35300550	     -4.62379808	    -29.43225442	   -258.65830432	     29.55766724	    -15.40439015	      1.39739177	     -2.51692041	   -159.50943005	      0.00000000	      0.00000000	      0.02710906	      0.00000000	      0.00000000
      1.08882264	    308.41879605	    175.09001140	     30.78841181	    264.26195692	    -30.74886987	      7.77249471	     -1.40912462	     -4.80980447	    -30.78841181	   -264.26195692	     30.74886987	    -15.44620776	      1.46177486	     -2.42128996	   -160.16553818	      0.00000000	      0.00000000	      0.02722057	      0.00000000	      0.00000000
      1.09250149	    307.01794590	    177.54260333	     32.02233751	    272.72766345	    -31.85310885	      7.70504979	     -1.45067933	     -5.09591795	    -32.02233751	   -272.72766345	     31.85310885	    -15.59806292	      1.51068583	     -2.32525087	   -160.70669660	      0.00000000	      0.00000000	      0.02731254	      0.00000000	      0.00000000
      1.09618035	    305.48439208	    173.63510402	     33.95657924	    284.44081421	    -33.67533333	      7.66435343	     -1.51778495	     -5.46134296	    -33.95657924	   -284.44081421	     33.67533333	    -15.85212156	      1.58632514	     -2.21587786	   -161.24785502	      0.00000000	      0.00000000	      0.02740451	      0.00000000	      0.00000000
      1.09985920	    303.95045170	    174.72365765	     35.90678885	    299.04006013	    -35.52004812	      7.61933706	     -1.57746229	     -5.92517159	    -35.90678885	   -299.04006013	     35.52004812	    -16.19878277	      1.65497537	     -2.09511117	   -161.78901344	      0.00000000	      0.00000000	      0.02749648	      0.00000000	      0.00000000
      1.10353805	    302.34352716	    171.96223684	     38.35390783	    316.12792926	    -37.84062929	      7.59734333	     -1.65154652	     -6.44649125	    -38.35390783	   -316.12792926	     37.84062929	    -16.62854577	      1.74029562	     -1.96578527	   -162.33017186	      0.00000000	      0.00000000	      0.02758845	      0.00000000	      0.00000000
      1.10721691	    300.75938631	    172.42348781	     40.83030058	    335.19755779	    -40.12513584	      7.57673960	     -1.71702507	     -7.02855349	    -40.83030058	   -335.19755779	     40.12513584	    -17.12735408	      1.81989076	     -1.83058484	   -162.87133028	      0.00000000	      0.00000000	      0.02768042	      0.00000000	      0.00000000
      1.11191847	    298.70949305	    168.84161717	     44.57706571	    361.60012571	    -43.45712461	      7.58252043	     -1.81031785	     -7.80046954	    -44.57706571	   -361.60012571	     43.45712461	    -17.84249672	      1.93885418	     -1.65438712	   -163.56292931	      0.00000000	      0.00000000	      0.02779796	      0.00000000	      0.00000000
      1.11547479	    297.27937733	    171.33028982	     47.13413656	    382.36409035	    -45.51270822	      7.57611955	     -1.85475890	     -8.41409255	    -47.13413656	   -382.36409035	     45.51270822	    -18.42009687	      2.00881451	     -1.52194933	   -164.08606212	      0.00000000	      0.00000000	      0.02788687	      0.00000000	      0.00000000
      1.11903110	    295.85536440	    168.20141848	     50.12903819	    403.22407461	    -47.82488542	      7.59700405	     -1.90691452	     -8.99800006	    -50.12903819	   -403.22407461	     47.82488542	    -19.01309187	      2.09364818	     -1.39370277	   -164.60919494	      0.00000000	      0.00000000	      0.02797578	      0.00000000	      0.00000000
      1.12258741	    294.54149289	    168.53782060	     52.82636518	    423.60442198	    -49.63999765	      7.60978634	     -1.93492460	     -9.56900085	    -52.82636518	   -423.60442198	     49.63999765	    -19.60407539	      2.16026728	     -1.27222722	   -165.13232776	      0.00000000	      0.00000000	      0.02806469	      0.00000000	      0.00000000
      1.12747444	    292.83907957	    165.69331826	     56.95986221	    452.63528894	    -52.29384176	      7.66457791	     -1.96013802	    -10.24957984	    -56.95986221	   -452.63528894	     52.29384176	    -20.47706734	      2.24808018	     -1.21381289	   -165.85120872	      0.00000000	      0.00000000	      0.02818686	      0.00000000	      0.00000000
      1.13130299	    291.68479153	    167.93822657	     59.39806225	    473.00041365	    -53.39753778	      7.68579314	     -1.93891948	    -10.73456111	    -59.39806225	   -473.00041365	     53.39753778	    -21.10439584	      2.27918236	     -1.17787043	   -166.41438671	      0.00000000	      0.00000000	      0.02828257	      0.00000000	      0.00000000
      1.13513153	    290.60280656	    164.82184913	     61.99669321	    490.42416135	    -54.64410861	      7.73914612	     -1.93051117	    -11.11630437	    -61.99669321	   -490.42416135	     54.64410861	    -21.65515815	      2.32353059	     -1.14486199	   -166.97756470	      0.00000000	      0.00000000	      0.02837829	      0.00000000	      0.00000000
